<svg width="39" height="37" viewBox="0 0 39 37" fill="none" xmlns="http://www.w3.org/2000/svg"><path d="M15.4 33.2h8.4V21.1h-8.4v12.1Zm6.8-1.5H17v-9.2h5.3v9.2Z" fill="#81B3D2"/><path d="m37.9 20 1.1-1-5.2-5V.1h-7.2v6.7L19.5 0 0 19l1.1 1 4-3.9v19.3h-2v1.4h33.4v-1.4h-2.7V16l4.1 4ZM28.1 1.7h4.2v10.8l-4.2-4V1.6Zm4.2 33.6H6.7V14.6L19.5 2.1l12.8 12.5v20.7Z" fill="#81B3D2"/><path d="M15.6 13.8a4 4 0 0 0 4 4 4 4 0 0 0 4-4 4 4 0 0 0-4-3.9 4 4 0 0 0-4 4Zm4-2.5c1.4 0 2.6 1.1 2.6 2.5s-1.2 2.6-2.6 2.6a2.6 2.6 0 0 1-2.6-2.6c0-1.3 1.2-2.5 2.6-2.5ZM10.4 21H8.8v2h1.6v-2ZM13.5 21h-1.6v2h1.6v-2ZM10.4 24.1H8.8v2h1.6v-2ZM13.5 24.1h-1.6v2h1.6v-2ZM27 21h-1.5v2H27v-2ZM30.2 21h-1.6v2h1.6v-2ZM27 24.1h-1.5v2H27v-2ZM30.2 24.1h-1.6v2h1.6v-2Z" fill="#81B3D2"/></svg>