<svg width="40" height="35" fill="none" xmlns="http://www.w3.org/2000/svg"><path d="M37.7 23.3H2.3c-1.3 0-2.3 1-2.3 2.2v1.8c0 1.1 1 2 2.3 2h.5v.6c0 2.8 2.3 5 5.2 5h24c3 0 5.2-2.3 5.2-5v-.5h.5c1.3 0 2.3-1 2.3-2.2v-1.8c0-1-1-2.1-2.3-2.1Zm-2 6.6c0 2-1.6 3.5-3.6 3.5H7.9c-2 0-3.6-1.6-3.6-3.5v-.5h31.4v.5Zm2.7-2.7c0 .4-.3.7-.7.7H2.3a.7.7 0 0 1-.7-.7v-1.8c0-.3.3-.6.7-.6h35.5c.4 0 .7.3.7.7v1.7Zm-29.9-8 2.8 2 3-2 2.8 2 2.9-2 2.8 2 3-2 2.8 2 2.9-2 2.9 2 3.3-2.4-.9-1.2-2.4 1.7-2.9-2-2.9 2-2.9-2-2.9 2-2.8-2-2.9 2-2.9-2-2.9 2-2.8-2-2.9 2-2.4-1.7-1 1.2 3.4 2.4 2.9-2Zm28.7-3.4v-1.6C37 6.3 29.2 0 20 0 10.7 0 3.1 6.3 2.7 14.2v1.6h34.5ZM20 1.5c8.4 0 15.3 5.7 15.6 12.7H4.3c.4-7 7.3-12.7 15.7-12.7Z" fill="#81B3D2"/><path d="M20 8.6c.6 0 1-.4 1-1s-.4-1-1-1a1 1 0 0 0-1 1c0 .6.4 1 1 1Zm-4.2-2.5c.6 0 1-.4 1-1 0-.5-.4-1-1-1a1 1 0 0 0-1 1c0 .6.4 1 1 1Zm8.4 0c.6 0 1-.4 1-1 0-.5-.4-1-1-1a1 1 0 0 0-1 1c0 .6.4 1 1 1Z" fill="#81B3D2"/></svg>